<svg class="img-fluid" id="outputsvg" xmlns="http://www.w3.org/2000/svg" style="transform: none; transform-origin: 50% 50% 0px; cursor: move; max-height: none; transition: none 0s ease 0s;" width="512" height="512" viewBox="0 0 5120 5120"><g id="l5eCPKx8SRoNQqgOtsRe3QW" fill="rgb(255,160,0)" style="transform: none;"><g><path id="ptb9JPu0R" d="M2137 4582 l-217 -217 0 -823 c0 -452 -2 -822 -4 -822 -19 0 -262 -46 -368 -70 -173 -39 -262 -82 -344 -166 -76 -76 -114 -152 -154 -304 -109 -421 -109 -841 1 -1267 39 -153 83 -236 169 -317 92 -87 183 -130 335 -161 607 -124 1152 -139 1735 -49 396 61 493 95 616 218 88 87 124 157 165 313 108 421 108 857 -1 1271 -38 144 -86 236 -163 313 -108 107 -196 138 -570 199 l-137 23 0 181 0 181 -110 110 -110 110 110 110 110 110 0 100 0 100 -110 110 -110 110 110 110 110 110 0 100 0 100 -218 218 -217 217 -68 0 -67 0 0 -993 c0 -759 -3 -996 -12 -1005 -16 -16 -120 -16 -136 0 -9 9 -12 246 -12 1005 l0 993 -58 0 -57 0 -218 -218z m1048 -3211 c45 -20 91 -69 112 -118 9 -22 13 -77 13 -172 l0 -140 -30 -16 c-95 -49 -307 -70 -720 -70 -413 0 -625 21 -720 70 l-30 16 0 140 c0 95 4 150 13 172 21 49 62 93 110 116 41 21 52 21 627 21 546 0 588 -2 625 -19z"></path></g></g><g id="l5pOVgXGtSAo172wW8mCBSN" fill="rgb(214,134,0)" style="transform: none;"><g><path id="pVA3cbynK" d="M2440 3792 c0 -771 3 -1011 12 -1020 16 -16 180 -16 196 0 9 9 12 249 12 1020 l0 1008 -110 0 -110 0 0 -1008z"></path></g></g></svg>
