<svg class="img-fluid" id="outputsvg" xmlns="http://www.w3.org/2000/svg" style="transform: none; transform-origin: 50% 50% 0px; cursor: move; max-height: none; transition: none 0s ease 0s;" width="512" height="512" viewBox="0 0 5120 5120"><g id="l2f3DN0LpG7XwkAFJIPE7Tl" fill="rgb(221,44,0)" style="transform: none;"><g style="transform: none;"><path id="pFuXZZcz0" d="M2536 4788 c-33 -4 -89 -22 -125 -38 -61 -29 -112 -77 -667 -633 -662 -663 -646 -644 -667 -790 -12 -90 1 -163 49 -255 26 -50 31 -68 23 -78 -9 -11 -6 -14 17 -14 24 0 86 57 404 374 244 243 390 381 418 395 63 32 159 54 201 46 50 -8 161 -48 161 -57 0 -5 6 -8 14 -8 8 0 16 -7 20 -15 3 -8 11 -15 18 -15 7 0 372 -359 811 -798 772 -772 797 -798 797 -835 0 -30 4 -37 19 -37 11 0 22 8 24 17 3 10 5 0 5 -22 0 -22 -2 -32 -5 -22 -3 10 -12 17 -21 15 -15 -3 -17 -34 -20 -331 -2 -322 -2 -327 18 -327 11 0 20 6 20 13 0 8 26 17 70 25 187 32 325 176 350 364 5 40 10 354 10 698 l0 625 -812 811 c-447 446 -826 820 -843 831 -78 51 -186 74 -289 61z"></path></g></g><g id="l6IzJgqFNxgzPgBl8bODOng" fill="rgb(255,87,34)" style="transform: none;"><g style="transform: none;"><path id="phQ4KozYd" d="M2090 3824 c-145 -31 -133 -21 -771 -661 -369 -370 -596 -606 -614 -636 -40 -69 -56 -132 -56 -217 0 -81 24 -167 62 -223 12 -18 387 -398 833 -845 l811 -812 655 0 c713 0 718 0 822 57 57 31 138 113 167 171 51 101 52 107 46 817 l-5 660 -798 798 c-438 438 -803 797 -810 797 -7 0 -15 7 -18 15 -4 8 -12 15 -20 15 -8 0 -14 4 -14 8 0 9 -35 22 -140 53 -75 21 -66 21 -150 3z m1408 -2560 c47 -19 88 -58 114 -108 31 -60 23 -161 -17 -217 -78 -110 -243 -121 -337 -22 -83 87 -75 237 16 309 67 53 153 68 224 38z"></path></g></g></svg>
