<?xml version="1.0" encoding="UTF-8" standalone="no"?>
<svg
   class="img-fluid"
   id="outputsvg"
   width="512"
   height="512"
   viewBox="0 0 5120 5120"
   version="1.1"
   xmlns="http://www.w3.org/2000/svg"
   xmlns:svg="http://www.w3.org/2000/svg">
  <defs
     id="defs13" />
  <g
     id="l1zCSFvd10fC0W0bwooNxQY"
     fill="#427f9d"
     data-darkreader-inline-fill="">
    <g
       id="g3">
      <path
         id="p15rcwwS88"
         d="m 640,4167 v -313 l 68,-105 c 303,-464 795,-800 1345,-918 321,-69 713,-67 1035,5 542,121 1025,454 1324,913 l 68,105 v 313 313 H 2560 640 Z" />
    </g>
  </g>
  <g
     id="l2RlPXxl6RT8uPrvM56vMtD"
     fill="#ffb74d"
     data-darkreader-inline-fill="">
    <g
       id="g7">
      <path
         id="p11aYDbR2m"
         d="m 2428,2440 c -107,-17 -183,-41 -283,-90 -340,-165 -536,-480 -536,-860 0,-270 99,-502 292,-685 125,-119 256,-192 420,-237 122,-33 356,-33 478,0 164,45 294,118 417,234 196,187 295,416 295,689 0,257 -83,470 -257,658 -115,124 -296,230 -464,271 -97,23 -277,33 -362,20 z" />
    </g>
  </g>
</svg>
