<svg class="img-fluid" id="outputsvg" xmlns="http://www.w3.org/2000/svg" style="transform: none; transform-origin: 50% 50% 0px; cursor: move; max-height: none; transition: none 0s ease 0s;" width="512" height="512" viewBox="0 0 5120 5120"><g id="l59Wq6oXpzq4FAZ24VfsEW9" fill="rgb(255,186,87)" style="transform: none; --darkreader-inline-fill: #ffba56;" data-darkreader-inline-fill=""><g style="transform: none;"><path id="pcvdqipMb" d="M0 3185 l0 -865 838 -2 837 -3 3 -142 c2 -118 5 -143 17 -143 13 0 15 -41 15 -285 l0 -285 850 0 850 0 0 445 c0 385 2 445 15 445 12 0 15 25 17 142 l3 143 838 3 837 2 0 705 0 705 -2560 0 -2560 0 0 -865z m4252 505 c2 -5 27 -15 56 -22 28 -7 52 -17 52 -23 0 -12 36 -45 49 -45 5 0 11 -18 15 -39 3 -22 12 -42 18 -44 10 -4 10 -8 2 -14 -6 -4 -15 -19 -19 -33 -9 -32 -33 -58 -67 -76 -42 -22 -39 -72 5 -100 34 -23 57 -77 57 -136 0 -25 -10 -41 -43 -73 -68 -64 -156 -81 -251 -49 -45 16 -116 73 -116 94 0 6 20 10 45 10 39 0 45 -3 51 -24 5 -20 14 -24 57 -30 97 -11 113 -8 141 25 45 53 32 170 -20 183 -13 4 -24 11 -24 16 0 6 -25 10 -55 10 -52 0 -55 1 -55 25 0 22 4 25 39 25 49 0 126 32 140 59 15 26 14 127 -1 154 -20 38 -40 46 -116 47 -64 0 -76 -3 -97 -25 -14 -13 -25 -31 -25 -40 0 -11 -12 -15 -50 -15 -27 0 -50 2 -50 5 0 4 6 19 14 34 20 38 75 78 119 86 21 4 40 11 43 16 7 12 82 11 86 -1z m-3112 -345 l0 -35 -140 0 -140 0 0 -50 c0 -32 4 -50 12 -50 19 0 48 -32 48 -52 0 -10 8 -21 18 -25 28 -10 102 -86 102 -105 0 -10 5 -18 10 -18 6 0 10 -7 10 -15 0 -8 5 -15 10 -15 6 0 10 -6 10 -14 0 -8 5 -16 12 -18 8 -3 12 -30 12 -77 l1 -73 -48 -43 c-39 -36 -57 -45 -101 -50 -58 -8 -132 1 -142 16 -3 5 -16 9 -30 9 -14 0 -24 6 -24 14 0 8 -10 23 -22 33 -21 17 -58 73 -58 87 0 3 20 6 45 6 33 0 45 -4 45 -15 0 -8 5 -15 10 -15 6 0 10 -10 10 -23 0 -27 34 -44 110 -53 52 -6 56 -5 83 25 23 26 27 40 27 91 0 33 -7 77 -15 96 -20 47 -71 111 -95 119 -11 4 -20 12 -20 19 0 6 -45 60 -100 118 -93 99 -110 125 -93 141 3 4 107 7 230 7 l223 0 0 -35z m1484 -831 c6 -17 9 -654 2 -654 -2 0 -21 7 -41 16 -21 8 -62 19 -92 24 -29 5 -60 16 -68 24 -8 8 -28 17 -45 21 -23 5 -30 12 -30 31 0 17 6 24 20 24 11 0 20 -4 20 -10 0 -6 28 -10 65 -10 l65 0 0 275 0 275 49 0 c35 0 51 -4 55 -16z"></path></g></g><g id="lR3BY9vAXxQucd0WNKbIX0" fill="rgb(255,233,179)" style="transform: none; --darkreader-inline-fill: #ffe197;" data-darkreader-inline-fill=""><g style="transform: none;"><path id="py2OZbyq0" d="M4135 3720 c-4 -6 -11 -8 -16 -5 -5 4 -15 3 -21 -2 -7 -4 -19 -8 -25 -9 -27 -4 -93 -67 -105 -99 -6 -19 -15 -35 -19 -35 -3 0 -4 -11 -1 -25 4 -24 7 -25 88 -25 65 0 84 3 84 14 0 34 36 59 86 62 27 1 57 -3 65 -10 36 -26 50 -87 28 -127 -14 -27 -91 -59 -140 -59 l-39 0 0 -55 0 -55 55 0 c30 0 55 -4 55 -10 0 -5 11 -12 25 -16 14 -4 24 -9 21 -11 -3 -3 1 -12 9 -20 22 -22 18 -58 -10 -91 -16 -19 -32 -28 -47 -26 -13 1 -37 3 -54 3 -25 1 -33 6 -38 26 -6 24 -9 25 -91 25 -98 0 -102 -5 -60 -75 41 -71 111 -103 227 -105 40 0 80 1 88 3 65 14 149 87 154 133 2 13 6 27 9 31 11 10 8 53 -3 53 -5 0 -7 7 -4 15 4 8 1 15 -6 15 -6 0 -8 5 -5 10 3 6 2 10 -4 10 -6 0 -8 6 -5 14 4 9 -9 26 -35 44 l-40 29 36 24 c20 13 41 33 47 44 6 11 15 23 20 26 5 4 5 12 2 18 -4 6 -2 11 3 11 6 0 11 18 11 40 0 22 -4 40 -10 40 -5 0 -7 7 -4 15 4 8 1 15 -6 15 -6 0 -9 4 -6 9 9 14 -5 41 -21 41 -8 0 -12 4 -9 9 3 5 -3 11 -14 14 -11 3 -19 11 -18 17 2 7 -20 18 -52 26 -30 8 -56 19 -58 24 -5 13 -139 13 -147 0z"></path><path id="pNHF0wAkM" d="M657 3403 c-4 -3 -7 -26 -7 -51 0 -42 4 -48 100 -150 54 -58 97 -109 95 -113 -3 -4 10 -16 28 -27 37 -22 100 -109 93 -129 -3 -7 -1 -13 4 -13 6 0 10 -16 10 -35 0 -49 -40 -94 -78 -88 -44 8 -80 26 -75 39 2 6 -2 18 -10 25 -7 8 -12 20 -9 27 3 9 -18 12 -83 12 l-86 0 3 -37 c2 -21 11 -47 21 -58 9 -10 16 -24 14 -29 -2 -6 6 -15 17 -21 12 -6 25 -20 31 -33 6 -13 19 -22 33 -22 12 0 25 -6 28 -14 4 -10 28 -14 87 -15 135 -3 163 5 220 60 27 26 46 52 42 58 -3 6 -2 11 3 11 5 0 9 29 9 65 0 36 -4 65 -8 65 -4 0 -5 9 -2 20 3 12 -1 22 -10 26 -9 3 -13 12 -10 20 3 8 -1 14 -11 14 -10 0 -13 6 -10 15 4 10 0 15 -11 15 -9 0 -13 4 -10 10 8 12 -73 100 -103 111 -13 5 -20 14 -17 20 8 12 -32 59 -50 59 -6 0 -11 9 -12 20 -2 19 4 20 138 20 l139 0 0 65 0 65 -253 0 c-140 0 -257 -3 -260 -7z"></path><path id="pk25u3KFX" d="M2490 2286 l0 -275 -32 1 c-18 1 -36 5 -40 11 -3 6 -20 10 -37 9 -17 0 -31 3 -31 8 0 5 -7 7 -15 4 -11 -5 -15 -22 -15 -63 l0 -58 40 -12 c22 -6 40 -15 40 -20 0 -9 80 -35 87 -27 3 2 40 -8 83 -24 43 -16 81 -26 84 -23 8 8 8 707 0 727 -5 13 -22 16 -85 16 l-79 0 0 -274z"></path></g></g><g id="l7SeTLBsKVw0eUyWNHaVhF8" fill="rgb(126,140,207)" style="transform: none; --darkreader-inline-fill: #80a2d0;" data-darkreader-inline-fill=""><g style="transform: none;"><path id="pQGTbOeqt" d="M3 2271 c7 -92 23 -134 63 -174 66 -66 11 -62 867 -65 l778 -2 -3 157 -3 158 -854 3 -854 2 6 -79z"></path></g></g><g id="l2gGU20chPxeV3Z58nZEEKk" fill="rgb(94,192,143)" style="transform: none; --darkreader-inline-fill: #6ac597;" data-darkreader-inline-fill=""><g style="transform: none;"><path id="p16pOflOET" d="M3417 2663 c-4 -3 -7 -75 -7 -160 l0 -153 778 2 c855 3 800 -1 866 65 40 40 56 82 63 174 l6 79 -850 0 c-467 0 -853 -3 -856 -7z"></path></g></g><g id="l5B6gfAmSzAj1xQPCT01GeE" fill="rgb(255,117,76)" style="transform: none; --darkreader-inline-fill: #ff774f;" data-darkreader-inline-fill=""><g style="transform: none;"><path id="pDPVwrvjx" d="M1710 1428 c0 -84 14 -131 53 -175 67 -76 30 -73 797 -73 767 0 730 -3 797 73 39 44 53 91 53 175 l0 62 -850 0 -850 0 0 -62z"></path></g></g><g id="l7idUW0WthSSaTrxjX16Kx4" fill="rgb(169,155,167)" style="transform: none; --darkreader-inline-fill: #ada69c;" data-darkreader-inline-fill=""><g style="transform: none;"></g></g><g id="l5CNom0wPJAUnfJp406A9hE" fill="rgb(148,190,124)" style="transform: none; --darkreader-inline-fill: #98c181;" data-darkreader-inline-fill=""><g style="transform: none;"></g></g></svg>
