<svg class="img-fluid" id="outputsvg" xmlns="http://www.w3.org/2000/svg" style="transform: none; transform-origin: 50% 50% 0px; cursor: move; max-height: none; transition: none 0s ease 0s;" width="512" height="512" viewBox="0 0 5120 5120"><g id="l5YFXGgRfQ1Ip2mQA7CheOr" fill="rgb(244,67,54)" style="transform: none;"><g style="transform: none;"><path id="pzWC84oCh" d="M2493 4435 c-159 -89 -555 -347 -748 -489 -902 -662 -1413 -1286 -1511 -1846 -38 -221 2 -501 104 -714 184 -384 516 -641 932 -721 111 -21 326 -21 445 0 306 54 621 247 790 484 28 38 52 70 55 70 3 0 28 -32 55 -70 64 -90 197 -216 300 -284 227 -150 444 -216 715 -216 352 0 664 132 908 385 225 233 347 514 359 831 6 161 -8 265 -58 422 -177 560 -791 1216 -1722 1841 -187 126 -538 342 -554 342 -4 0 -36 -16 -70 -35z"></path></g></g></svg>
