<?xml version="1.0" encoding="UTF-8" standalone="no"?>
<svg
   class="img-fluid"
   id="outputsvg"
   width="512"
   height="512"
   viewBox="0 0 5120 5120"
   version="1.1"
   xmlns="http://www.w3.org/2000/svg"
   xmlns:svg="http://www.w3.org/2000/svg">
  <defs
     id="defs4397" />
  <g
     id="l3gWPZbGtZPCRiu50pVMzgQ"
     fill="#c7ada4">
    <g
       id="g4374">
      <path
         id="pZJYnVuVl"
         d="m 1140,4560 c 0,-11 6,-20 13,-20 6,0 39,-13 72,-29 76,-36 154,-116 197,-201 l 33,-65 3,-1322 c 2,-1312 2,-1323 22,-1323 20,0 20,-8 20,-530 V 540 h 1540 1540 l -2,1863 -3,1862 -32,68 c -42,88 -122,168 -210,210 l -68,32 -1562,3 c -1561,2 -1563,2 -1563,-18 z m 1820,-505 v -75 h -400 -400 v 75 75 h 400 400 z m 1060,0 v -75 h -395 -395 v 75 75 h 395 395 z M 2960,3625 v -75 h -400 -400 v 75 75 h 400 400 z m 1060,0 v -75 h -395 -395 v 75 75 h 395 395 z M 2960,3200 v -80 h -400 -400 v 80 80 h 400 400 z m 1060,0 v -80 h -395 -395 v 80 80 h 395 395 z M 2960,2775 v -75 h -400 -400 v 75 75 h 400 400 z m 1060,0 v -75 h -395 -395 v 75 75 h 395 395 z M 2960,2345 v -75 h -400 -400 v 75 75 h 400 400 z m 1060,0 v -75 h -395 -395 v 75 75 h 395 395 z M 2960,1920 v -80 h -400 -400 v 80 80 h 400 400 z m 1060,0 v -80 h -395 -395 v 80 80 h 395 395 z m 0,-640 v -180 h -930 -930 v 180 180 h 930 930 z" />
    </g>
  </g>
  <g
     id="l5Edzb7f98SCcL14WWATlYd"
     fill="#453c39">
    <g
       id="g4391">
      <path
         id="p1H1k2hWXY"
         d="m 945,4562 c -78,-27 -138,-67 -188,-122 -60,-67 -95,-143 -107,-232 -5,-42 -10,-607 -10,-1340 V 1600 h 425 425 l -2,1338 -3,1337 -33,65 c -44,86 -128,171 -206,207 -79,36 -222,44 -301,15 z" />
      <path
         id="p1CLxEnqD7"
         d="m 2130,4055 v -105 h 430 430 v 105 105 h -430 -430 z" />
      <path
         id="puUiVVyLP"
         d="m 3200,4055 v -105 h 425 425 v 105 105 h -425 -425 z" />
      <path
         id="p166bIqAw6"
         d="m 2553,3732 -423,-2 v -105 -105 h 430 430 v 104 c 0,58 -3,106 -7,108 -5,2 -198,2 -430,0 z" />
      <path
         id="pIDsXDQtr"
         d="m 3200,3625 v -105 h 425 425 v 105 105 h -425 -425 z" />
      <path
         id="pzNU4hvNi"
         d="m 2130,3200 v -110 h 430 430 v 110 110 h -430 -430 z" />
      <path
         id="p1D1XK2NSr"
         d="m 3200,3200 v -110 h 423 c 233,0 426,2 428,4 2,2 3,52 1,110 l -3,106 h -425 -424 z" />
      <path
         id="phPG4qnpZ"
         d="m 2130,2775 v -105 h 430 430 v 105 105 h -430 -430 z" />
      <path
         id="pRDW1PsDE"
         d="m 3200,2775 v -105 h 425 425 v 105 105 h -425 -425 z" />
      <path
         id="p1GKCBY0Bt"
         d="m 2553,2452 -423,-2 v -105 -105 h 430 430 v 104 c 0,58 -3,106 -7,108 -5,2 -198,2 -430,0 z" />
      <path
         id="pNpIQ18Uo"
         d="m 3200,2345 v -105 h 425 425 v 105 105 h -425 -425 z" />
      <path
         id="pyCRszuje"
         d="m 2130,1920 v -110 h 430 430 v 110 110 h -430 -430 z" />
      <path
         id="pHVnuxFWP"
         d="m 3200,1920 v -110 h 423 c 233,0 426,2 428,4 2,2 3,52 1,110 l -3,106 h -425 -424 z" />
      <path
         id="pp1tKfYbo"
         d="m 2130,1280 v -210 h 960 960 v 210 210 h -960 -960 z" />
    </g>
  </g>
</svg>
