<?xml version="1.0" encoding="UTF-8" standalone="no"?>
<svg
   class="img-fluid"
   id="outputsvg"
   width="512"
   height="512"
   viewBox="0 0 5120 5120"
   version="1.1"
   xmlns="http://www.w3.org/2000/svg"
   xmlns:svg="http://www.w3.org/2000/svg">
  <defs
     id="defs22" />
  <g
     id="l1KI241MT6z0TbclHQaNsOM"
     fill="#c5cae9">
    <g
       id="g4">
      <path
         id="pnE46qGlE"
         d="m 750,4620 v -280 h 225 c 193,0 225,2 225,15 0,8 -7,15 -15,15 -13,0 -15,36 -15,265 v 265 H 960 750 Z" />
      <path
         id="px03wmr7d"
         d="M 3950,2770 V 640 H 2560 1170 v 1639 c 0,1302 3,1640 13,1644 31,13 -24,24 -185,36 -95,7 -190,15 -210,18 l -38,6 V 2101 220 h 1810 1810 v 2340 2340 h -210 -210 z" />
    </g>
  </g>
  <g
     id="lLuoT24EzinjEI7f3Fe2P7"
     fill="#607d8b">
    <g
       id="g8">
      <path
         id="pQDmfpmZe"
         d="m 2631,4380 c -352,-465 -395,-519 -407,-503 -12,17 -14,17 -31,-2 -10,-11 -39,-47 -63,-80 -25,-33 -49,-65 -55,-71 -5,-6 -17,-22 -25,-34 -8,-12 -22,-30 -30,-40 -8,-10 -22,-28 -30,-40 -8,-12 -22,-30 -30,-40 -8,-10 -22,-28 -30,-40 -8,-12 -21,-28 -28,-36 -6,-7 -12,-17 -12,-23 0,-6 -4,-11 -10,-11 -5,0 -10,-6 -10,-14 0,-8 -3,-16 -7,-18 -5,-1 -19,-25 -32,-51 l -23,-49 30,-133 c 28,-124 44,-163 226,-562 107,-235 196,-434 198,-442 3,-14 -76,-29 -283,-55 l -55,-7 -184,276 c -101,152 -201,291 -221,310 -59,53 -125,66 -200,40 -109,-39 -168,-166 -125,-269 8,-18 117,-188 244,-377 200,-300 235,-347 273,-369 l 44,-25 h 490 490 l 163,77 c 89,42 178,88 197,102 57,44 105,143 256,523 l 144,363 h 223 222 v 211 211 l -312,-4 c -206,-2 -322,-8 -339,-15 -64,-28 -98,-74 -220,-301 -67,-125 -126,-233 -132,-240 -7,-9 -55,73 -173,294 l -163,306 451,821 c 247,452 452,825 455,830 2,4 -105,7 -239,7 h -244 z" />
    </g>
  </g>
  <g
     id="l67oQogjgWzSV7aDFlAGGz0"
     fill="#455a64">
    <g
       id="g12">
      <path
         id="phj4A6S9d"
         d="m 750,4160 c 0,-209 0,-210 23,-214 26,-6 258,-24 407,-32 58,-3 195,-13 304,-22 l 199,-17 73,-320 c 72,-317 85,-366 78,-313 -2,15 1,30 7,34 6,3 8,12 5,19 -2,7 -2,16 2,20 4,4 8,10 8,13 4,20 30,72 36,72 4,0 8,7 8,15 0,8 5,15 10,15 6,0 10,5 10,11 0,6 6,16 13,23 6,8 19,24 27,36 8,12 22,30 30,40 8,10 22,28 30,40 8,12 22,30 30,40 8,10 22,28 30,40 8,12 20,28 25,34 6,6 30,38 55,71 24,33 50,66 57,73 7,7 13,16 13,19 0,25 -117,377 -136,410 -15,26 -43,53 -72,70 l -47,28 -612,3 -613,3 z" />
    </g>
  </g>
  <g
     id="l7YQ6XY473mtXYZgN94qJM"
     fill="#ffb74d">
    <g
       id="g16">
      <path
         id="pwO67Zz1f"
         d="m 3021,1684 c -225,-60 -383,-305 -342,-532 18,-103 60,-183 135,-258 149,-149 353,-183 541,-90 292,145 356,526 125,756 -120,121 -296,168 -459,124 z" />
    </g>
  </g>
</svg>
