<svg class="img-fluid" id="outputsvg" xmlns="http://www.w3.org/2000/svg" style="transform: none; transform-origin: 50% 50% 0px; cursor: move; max-height: none; transition: none 0s ease 0s;" width="512" height="512" viewBox="0 0 5120 5120"><g id="l2WCCXWVjS8t5eXb1pucelL" fill="rgb(76,175,80)" style="transform: none;"><g><path id="pd7jpRTT" d="M2355 4679 c-306 -30 -660 -150 -917 -312 -187 -118 -376 -283 -514 -449 -408 -488 -576 -1154 -450 -1777 170 -836 829 -1497 1663 -1666 854 -173 1727 193 2205 925 250 382 375 863 340 1309 -46 590 -315 1112 -767 1490 -426 356 -1002 533 -1560 480z m903 -1113 c30 -17 68 -48 85 -70 l32 -40 0 -136 0 -136 55 -84 55 -83 6 -121 c6 -120 6 -122 53 -209 55 -104 58 -142 21 -241 -14 -37 -25 -82 -25 -100 0 -19 11 -64 25 -100 34 -90 33 -141 -5 -197 -16 -25 -48 -56 -72 -69 l-43 -25 -447 -3 -448 -3 0 -30 c0 -16 11 -51 24 -77 54 -108 94 -278 103 -437 6 -118 -4 -167 -50 -226 -40 -52 -94 -81 -162 -87 -46 -4 -54 -2 -72 22 -12 15 -34 82 -53 158 -36 146 -69 228 -122 300 -34 47 -250 286 -424 469 -98 102 -135 162 -153 247 -7 35 -11 204 -11 489 0 461 3 502 50 593 28 55 102 131 162 168 100 59 120 61 773 59 l590 -2 53 -29z"></path></g></g><g id="l4c7qRcVL6D6G0fzab9JcKi" fill="rgb(255,204,128)" style="transform: none;"><g><path id="p2V7CQBzS" d="M1931 3615 c-111 -25 -230 -116 -281 -215 -47 -92 -50 -130 -50 -623 0 -307 4 -484 11 -519 18 -85 55 -145 153 -247 174 -183 390 -422 424 -469 53 -72 86 -154 122 -300 18 -75 41 -143 53 -158 19 -25 24 -26 101 -22 97 4 147 26 193 87 48 62 56 106 50 261 -8 182 -46 351 -106 468 l-21 41 448 3 447 3 42 24 c110 63 136 182 73 341 l-21 54 27 75 c19 53 28 95 28 139 0 55 -6 74 -50 159 -49 95 -49 96 -54 213 l-5 116 -55 84 -55 84 3 131 3 131 -34 44 c-19 25 -58 59 -88 75 l-54 30 -620 2 c-501 1 -632 -1 -684 -12z"></path></g></g></svg>
