<?xml version="1.0" encoding="UTF-8" standalone="no"?>
<svg
   class="img-fluid"
   id="outputsvg"
   width="512"
   height="512"
   viewBox="0 0 5120 5120"
   version="1.1"
   xmlns="http://www.w3.org/2000/svg"
   xmlns:svg="http://www.w3.org/2000/svg">
  <defs
     id="defs19" />
  <g
     id="l5jSdcUKpkqapr9MbrjojHG"
     fill="#fcc22c">
    <g
       id="g5">
      <path
         id="pjYLDQAQ6"
         d="m 1874,4790 c -64,-9 -146,-53 -186,-99 -17,-19 -43,-60 -57,-91 l -26,-55 -3,-1037 c -3,-1180 -11,-1092 82,-977 221,273 627,446 961,408 53,-5 128,-19 168,-30 40,-11 87,-22 105,-26 17,-3 32,-10 32,-14 0,-5 5,-9 11,-9 15,0 163,-73 167,-82 2,-5 10,-8 18,-8 8,0 14,-4 14,-10 0,-5 7,-10 15,-10 8,0 15,-4 15,-10 0,-5 6,-10 14,-10 8,0 16,-7 20,-15 3,-8 12,-15 20,-15 7,0 21,-11 30,-25 9,-14 22,-25 28,-25 16,0 98,-81 98,-97 0,-7 11,-20 25,-29 14,-9 25,-22 25,-29 0,-14 22,-25 51,-25 19,0 20,14 17,1038 l -3,1037 -33,67 c -37,76 -82,120 -162,157 l -55,26 -670,2 c -369,0 -693,-2 -721,-7 z m 800,-737 c -64,-222 -67,-255 -25,-273 41,-17 100,-77 122,-125 26,-56 24,-111 -7,-173 -32,-64 -83,-107 -150,-129 -64,-20 -108,-12 -171,30 -91,61 -133,171 -99,260 19,49 83,119 127,137 25,11 29,18 29,49 0,20 -24,121 -54,224 l -53,187 h 167 167 z" />
      <path
         id="p8ZIhCHpD"
         d="m 3205,1731 c -22,-9 -75,-69 -75,-85 0,-14 -64,-151 -72,-154 -5,-2 -8,-8 -8,-13 0,-13 -13,-27 -83,-96 -70,-69 -125,-107 -195,-133 -116,-44 -142,-73 -142,-160 0,-149 119,-182 313,-86 164,81 270,173 366,320 68,104 94,174 99,268 l 4,78 -35,35 c -32,32 -40,35 -93,34 -33,0 -68,-4 -79,-8 z" />
      <path
         id="pT9bKu5qZ"
         d="m 1601,862 4,-287 33,-67 c 37,-76 82,-120 162,-157 l 55,-26 h 705 705 l 55,26 c 80,37 125,81 162,157 l 33,67 4,287 c 3,287 3,288 -18,288 -11,0 -33,-15 -48,-32 -205,-245 -475,-406 -733,-439 -97,-12 -252,-17 -265,-8 -5,3 -39,9 -75,11 -36,3 -99,15 -140,28 -83,24 -280,116 -280,131 0,5 -7,9 -15,9 -8,0 -15,5 -15,10 0,6 -6,10 -14,10 -8,0 -28,14 -46,30 -18,17 -35,30 -38,30 -10,0 -138,135 -145,153 -3,9 -11,17 -17,17 -6,0 -15,11 -20,25 -6,16 -17,25 -31,25 h -21 z" />
    </g>
  </g>
  <g
     id="l6VOW0xWEQx8hMEjiD4Yvmb"
     fill="#ffa000">
    <g
       id="g9">
      <path
         id="pmuALbhOE"
         d="m 2346,2959 c -261,-53 -457,-157 -636,-339 -87,-88 -113,-128 -200,-305 -122,-247 -150,-523 -80,-796 25,-99 83,-234 133,-312 20,-31 37,-64 37,-72 0,-7 5,-17 10,-20 6,-4 8,-10 5,-15 -3,-5 5,-16 17,-25 13,-8 23,-19 23,-24 0,-9 138,-151 147,-151 3,0 20,-13 38,-30 18,-16 38,-30 46,-30 8,0 14,-4 14,-10 0,-5 7,-10 15,-10 8,0 15,-4 15,-9 0,-15 197,-107 275,-129 98,-28 184,-45 200,-38 8,3 17,1 20,-4 6,-9 221,-6 313,5 135,16 315,86 460,181 99,64 322,281 322,313 0,6 17,37 37,68 50,78 108,213 133,312 70,273 42,550 -80,796 -78,158 -94,184 -113,191 -9,3 -15,9 -12,14 3,5 -9,18 -25,30 -17,12 -29,25 -25,28 8,8 -86,102 -102,102 -7,0 -20,11 -29,25 -9,14 -23,25 -30,25 -8,0 -17,7 -20,15 -4,8 -12,15 -20,15 -8,0 -14,5 -14,10 0,6 -7,10 -15,10 -8,0 -15,5 -15,10 0,6 -6,10 -14,10 -8,0 -16,3 -18,8 -4,9 -152,82 -166,82 -6,0 -12,3 -14,8 -3,8 -105,37 -208,59 -102,22 -318,23 -424,2 z M 3346,1676 c 31,-31 33,-38 30,-82 -11,-138 -144,-343 -300,-463 -51,-39 -226,-136 -226,-124 0,3 -7,0 -15,-7 -8,-7 -15,-9 -15,-4 0,4 -5,3 -12,-4 -7,-7 -23,-12 -38,-12 -31,0 -93,37 -85,50 3,6 2,10 -4,10 -6,0 -8,7 -5,15 4,8 1,15 -5,15 -6,0 -11,9 -11,20 0,11 5,20 11,20 6,0 9,7 5,15 -3,8 -1,15 5,15 6,0 8,4 5,9 -9,14 16,29 101,65 96,40 137,67 211,140 70,69 82,82 82,96 0,5 5,10 10,10 6,0 10,7 10,15 0,8 5,15 11,15 5,0 7,5 4,10 -3,6 -1,10 5,10 6,0 8,5 5,10 -3,6 -1,10 5,10 6,0 8,5 5,10 -3,6 -1,10 5,10 6,0 8,5 5,10 -3,6 -1,10 5,10 7,0 10,7 6,15 -3,8 -1,15 5,15 6,0 9,7 5,15 -3,8 0,15 6,15 6,0 9,3 5,6 -8,8 34,54 58,64 43,18 76,11 111,-24 z" />
    </g>
  </g>
  <g
     id="l2Av9f2Fb8go92ZQHLtS4oS"
     fill="#424242">
    <g
       id="g13">
      <path
         id="pStIF8wqO"
         d="m 2350,4262 c 0,-4 27,-102 60,-217 33,-115 60,-213 60,-216 0,-4 -13,-12 -29,-19 -42,-17 -101,-78 -121,-125 -29,-65 -33,-118 -16,-179 34,-116 134,-196 245,-196 116,0 200,50 248,148 51,104 31,222 -51,304 -21,20 -51,42 -67,48 -16,7 -29,15 -29,19 0,3 27,101 60,216 33,115 60,213 60,217 0,5 -94,8 -210,8 -116,0 -210,-3 -210,-8 z" />
    </g>
  </g>
</svg>
